<mxfile host="app.diagrams.net" modified="2020-10-19T16:48:53.452Z" agent="5.0 (X11; Linux x86_64) AppleWebKit/537.36 (KHTML, like Gecko) Chrome/84.0.4147.89 Safari/537.36" etag="J7DWYpCnMU6GxTBTOnPO" version="13.7.6" type="github">
  <diagram id="C5RBs43oDa-KdzZeNtuy" name="Page-1">
    <mxGraphModel dx="1422" dy="745" grid="1" gridSize="10" guides="1" tooltips="1" connect="1" arrows="1" fold="1" page="1" pageScale="1" pageWidth="827" pageHeight="1169" math="0" shadow="0">
      <root>
        <mxCell id="WIyWlLk6GJQsqaUBKTNV-0" />
        <mxCell id="WIyWlLk6GJQsqaUBKTNV-1" parent="WIyWlLk6GJQsqaUBKTNV-0" />
        <mxCell id="CNceloM9hNiz_6qwrB2_-0" value="Pool" style="swimlane;html=1;childLayout=stackLayout;resizeParent=1;resizeParentMax=0;horizontal=1;startSize=20;horizontalStack=0;" vertex="1" parent="WIyWlLk6GJQsqaUBKTNV-1">
          <mxGeometry x="20" y="40" width="760" height="550" as="geometry" />
        </mxCell>
        <mxCell id="CNceloM9hNiz_6qwrB2_-1" value="Firestore" style="swimlane;html=1;startSize=20;horizontal=0;" vertex="1" parent="CNceloM9hNiz_6qwrB2_-0">
          <mxGeometry y="20" width="760" height="130" as="geometry" />
        </mxCell>
        <mxCell id="CNceloM9hNiz_6qwrB2_-27" style="edgeStyle=orthogonalEdgeStyle;rounded=0;orthogonalLoop=1;jettySize=auto;html=1;exitX=1;exitY=0.5;exitDx=0;exitDy=0;exitPerimeter=0;entryX=0;entryY=0;entryDx=0;entryDy=27.5;entryPerimeter=0;dashed=1;dashPattern=1 4;shape=link;" edge="1" parent="CNceloM9hNiz_6qwrB2_-1" source="CNceloM9hNiz_6qwrB2_-5" target="CNceloM9hNiz_6qwrB2_-21">
          <mxGeometry relative="1" as="geometry" />
        </mxCell>
        <mxCell id="CNceloM9hNiz_6qwrB2_-21" value="Firestore Cloud" style="shape=cylinder3;whiteSpace=wrap;html=1;boundedLbl=1;backgroundOutline=1;size=15;" vertex="1" parent="CNceloM9hNiz_6qwrB2_-1">
          <mxGeometry x="600" y="10" width="60" height="80" as="geometry" />
        </mxCell>
        <mxCell id="CNceloM9hNiz_6qwrB2_-5" value="Local IndexDB" style="shape=cylinder3;whiteSpace=wrap;html=1;boundedLbl=1;backgroundOutline=1;size=15;" vertex="1" parent="CNceloM9hNiz_6qwrB2_-1">
          <mxGeometry x="60" y="20" width="60" height="80" as="geometry" />
        </mxCell>
        <mxCell id="CNceloM9hNiz_6qwrB2_-2" value="Firestore listeners/Functions" style="swimlane;html=1;startSize=20;horizontal=0;" vertex="1" parent="CNceloM9hNiz_6qwrB2_-0">
          <mxGeometry y="150" width="760" height="160" as="geometry" />
        </mxCell>
        <mxCell id="CNceloM9hNiz_6qwrB2_-15" style="edgeStyle=orthogonalEdgeStyle;rounded=0;orthogonalLoop=1;jettySize=auto;html=1;exitX=1;exitY=0.75;exitDx=0;exitDy=0;entryX=0;entryY=0.5;entryDx=0;entryDy=0;" edge="1" parent="CNceloM9hNiz_6qwrB2_-2" source="CNceloM9hNiz_6qwrB2_-10" target="CNceloM9hNiz_6qwrB2_-14">
          <mxGeometry relative="1" as="geometry" />
        </mxCell>
        <mxCell id="CNceloM9hNiz_6qwrB2_-13" value="" style="edgeStyle=orthogonalEdgeStyle;rounded=0;orthogonalLoop=1;jettySize=auto;html=1;" edge="1" parent="CNceloM9hNiz_6qwrB2_-2" source="CNceloM9hNiz_6qwrB2_-10" target="CNceloM9hNiz_6qwrB2_-12">
          <mxGeometry relative="1" as="geometry" />
        </mxCell>
        <mxCell id="CNceloM9hNiz_6qwrB2_-12" value="Setlist Changes" style="rounded=0;whiteSpace=wrap;html=1;" vertex="1" parent="CNceloM9hNiz_6qwrB2_-2">
          <mxGeometry x="460" y="40" width="100" height="40" as="geometry" />
        </mxCell>
        <mxCell id="CNceloM9hNiz_6qwrB2_-10" value="Auth User" style="rounded=0;whiteSpace=wrap;html=1;" vertex="1" parent="CNceloM9hNiz_6qwrB2_-2">
          <mxGeometry x="120" y="30" width="120" height="60" as="geometry" />
        </mxCell>
        <mxCell id="CNceloM9hNiz_6qwrB2_-14" value="Songs Changes" style="rounded=0;whiteSpace=wrap;html=1;" vertex="1" parent="CNceloM9hNiz_6qwrB2_-2">
          <mxGeometry x="320" y="90" width="100" height="40" as="geometry" />
        </mxCell>
        <mxCell id="CNceloM9hNiz_6qwrB2_-6" value="Application" style="swimlane;html=1;startSize=20;horizontal=0;" vertex="1" parent="CNceloM9hNiz_6qwrB2_-0">
          <mxGeometry y="310" width="760" height="120" as="geometry" />
        </mxCell>
        <mxCell id="CNceloM9hNiz_6qwrB2_-7" value="Starts" style="shape=process;whiteSpace=wrap;html=1;backgroundOutline=1;" vertex="1" parent="CNceloM9hNiz_6qwrB2_-6">
          <mxGeometry x="86" y="30" width="120" height="60" as="geometry" />
        </mxCell>
        <mxCell id="CNceloM9hNiz_6qwrB2_-20" value="updateSong/updateSetlist" style="rounded=0;whiteSpace=wrap;html=1;" vertex="1" parent="CNceloM9hNiz_6qwrB2_-6">
          <mxGeometry x="560" y="30" width="170" height="60" as="geometry" />
        </mxCell>
        <mxCell id="CNceloM9hNiz_6qwrB2_-3" value="Redux" style="swimlane;html=1;startSize=20;horizontal=0;" vertex="1" parent="CNceloM9hNiz_6qwrB2_-0">
          <mxGeometry y="430" width="760" height="120" as="geometry" />
        </mxCell>
        <mxCell id="CNceloM9hNiz_6qwrB2_-16" value="UPDATE_SONG" style="rounded=0;whiteSpace=wrap;html=1;" vertex="1" parent="CNceloM9hNiz_6qwrB2_-3">
          <mxGeometry x="216" y="30" width="120" height="60" as="geometry" />
        </mxCell>
        <mxCell id="CNceloM9hNiz_6qwrB2_-18" value="UPDATE_SETLIST" style="rounded=0;whiteSpace=wrap;html=1;" vertex="1" parent="CNceloM9hNiz_6qwrB2_-3">
          <mxGeometry x="376" y="30" width="120" height="60" as="geometry" />
        </mxCell>
        <mxCell id="CNceloM9hNiz_6qwrB2_-4" value="SET_INIT_STATE" style="rounded=0;whiteSpace=wrap;html=1;" vertex="1" parent="CNceloM9hNiz_6qwrB2_-3">
          <mxGeometry x="36" y="40" width="120" height="60" as="geometry" />
        </mxCell>
        <mxCell id="CNceloM9hNiz_6qwrB2_-8" style="edgeStyle=orthogonalEdgeStyle;rounded=0;orthogonalLoop=1;jettySize=auto;html=1;entryX=1;entryY=0.5;entryDx=0;entryDy=0;" edge="1" parent="CNceloM9hNiz_6qwrB2_-0" source="CNceloM9hNiz_6qwrB2_-7" target="CNceloM9hNiz_6qwrB2_-4">
          <mxGeometry relative="1" as="geometry" />
        </mxCell>
        <mxCell id="CNceloM9hNiz_6qwrB2_-9" style="edgeStyle=orthogonalEdgeStyle;rounded=0;orthogonalLoop=1;jettySize=auto;html=1;entryX=0.25;entryY=0;entryDx=0;entryDy=0;" edge="1" parent="CNceloM9hNiz_6qwrB2_-0" source="CNceloM9hNiz_6qwrB2_-5" target="CNceloM9hNiz_6qwrB2_-4">
          <mxGeometry relative="1" as="geometry" />
        </mxCell>
        <mxCell id="CNceloM9hNiz_6qwrB2_-11" style="edgeStyle=orthogonalEdgeStyle;rounded=0;orthogonalLoop=1;jettySize=auto;html=1;" edge="1" parent="CNceloM9hNiz_6qwrB2_-0" source="CNceloM9hNiz_6qwrB2_-7" target="CNceloM9hNiz_6qwrB2_-10">
          <mxGeometry relative="1" as="geometry" />
        </mxCell>
        <mxCell id="CNceloM9hNiz_6qwrB2_-17" style="edgeStyle=orthogonalEdgeStyle;rounded=0;orthogonalLoop=1;jettySize=auto;html=1;" edge="1" parent="CNceloM9hNiz_6qwrB2_-0" source="CNceloM9hNiz_6qwrB2_-14" target="CNceloM9hNiz_6qwrB2_-16">
          <mxGeometry relative="1" as="geometry" />
        </mxCell>
        <mxCell id="CNceloM9hNiz_6qwrB2_-19" style="edgeStyle=orthogonalEdgeStyle;rounded=0;orthogonalLoop=1;jettySize=auto;html=1;exitX=0.5;exitY=1;exitDx=0;exitDy=0;" edge="1" parent="CNceloM9hNiz_6qwrB2_-0" source="CNceloM9hNiz_6qwrB2_-12" target="CNceloM9hNiz_6qwrB2_-18">
          <mxGeometry relative="1" as="geometry" />
        </mxCell>
        <mxCell id="CNceloM9hNiz_6qwrB2_-22" style="edgeStyle=orthogonalEdgeStyle;rounded=0;orthogonalLoop=1;jettySize=auto;html=1;" edge="1" parent="CNceloM9hNiz_6qwrB2_-0" source="CNceloM9hNiz_6qwrB2_-20" target="CNceloM9hNiz_6qwrB2_-21">
          <mxGeometry relative="1" as="geometry" />
        </mxCell>
        <mxCell id="CNceloM9hNiz_6qwrB2_-24" style="edgeStyle=orthogonalEdgeStyle;rounded=0;orthogonalLoop=1;jettySize=auto;html=1;exitX=0.145;exitY=1;exitDx=0;exitDy=-4.35;exitPerimeter=0;" edge="1" parent="CNceloM9hNiz_6qwrB2_-0" source="CNceloM9hNiz_6qwrB2_-21" target="CNceloM9hNiz_6qwrB2_-14">
          <mxGeometry relative="1" as="geometry" />
        </mxCell>
        <mxCell id="CNceloM9hNiz_6qwrB2_-25" style="edgeStyle=orthogonalEdgeStyle;rounded=0;orthogonalLoop=1;jettySize=auto;html=1;exitX=0;exitY=0;exitDx=0;exitDy=52.5;exitPerimeter=0;" edge="1" parent="CNceloM9hNiz_6qwrB2_-0" source="CNceloM9hNiz_6qwrB2_-21" target="CNceloM9hNiz_6qwrB2_-12">
          <mxGeometry relative="1" as="geometry" />
        </mxCell>
      </root>
    </mxGraphModel>
  </diagram>
</mxfile>
